<svg xmlns="http://www.w3.org/2000/svg" xmlns:xlink="http://www.w3.org/1999/xlink" width="30" height="20" viewBox="0 0 30 20">
  <defs>
    <clipPath id="clip-path">
      <rect id="Icon" width="30" height="20" transform="translate(0 0.236)" fill="#fff" stroke="#707070" stroke-width="1"/>
    </clipPath>
  </defs>
  <g id="Tab_Button" data-name="Tab Button" transform="translate(0 -0.236)">
    <g id="Glyph">
      <rect id="Frame" width="30" height="20" transform="translate(0 0.236)" fill="none"/>
      <g id="Mask_Group_7" data-name="Mask Group 7" clip-path="url(#clip-path)">
        <g id="user" transform="translate(5 0.236)">
          <g id="Group_9" data-name="Group 9">
            <g id="Group_8" data-name="Group 8">
              <path id="Path_116" data-name="Path 116" d="M10,0a5.273,5.273,0,1,0,5.273,5.273A5.279,5.279,0,0,0,10,0Z" fill="#bababa"/>
            </g>
          </g>
          <g id="Group_11" data-name="Group 11">
            <g id="Group_10" data-name="Group 10">
              <path id="Path_117" data-name="Path 117" d="M16.561,13.992a7.518,7.518,0,0,0-5.389-2.273H8.828a7.518,7.518,0,0,0-5.389,2.273,7.685,7.685,0,0,0-2.228,5.422A.586.586,0,0,0,1.8,20H18.2a.586.586,0,0,0,.586-.586A7.685,7.685,0,0,0,16.561,13.992Z" fill="#bababa"/>
            </g>
          </g>
        </g>
      </g>
    </g>
  </g>
</svg>
